<?xml version="1.0" standalone="no"?>
<!DOCTYPE svg PUBLIC "-//W3C//DTD SVG 20010904//EN"
 "http://www.w3.org/TR/2001/REC-SVG-20010904/DTD/svg10.dtd">
<svg version="1.0" xmlns="http://www.w3.org/2000/svg"
 width="178.000000pt" height="178.000000pt" viewBox="0 0 178.000000 178.000000"
 preserveAspectRatio="xMidYMid meet">
<metadata>
Created by potrace 1.11, written by Peter Selinger 2001-2013
</metadata>
<g transform="translate(0.000000,178.000000) scale(0.100000,-0.100000)"
fill="#000000" stroke="none">
<path d="M113 1385 c-52 -44 -81 -91 -98 -157 -20 -76 -21 -593 -1 -669 16
-59 48 -121 79 -152 47 -47 43 -47 801 -47 457 0 724 4 741 10 38 14 90 71
117 127 23 47 23 53 23 388 0 375 -1 385 -66 466 -57 73 -14 69 -826 69 l-729
0 -41 -35z"/>
</g>
</svg>
